<?xml version="1.0" encoding="UTF-8" standalone="no"?><!DOCTYPE svg PUBLIC "-//W3C//DTD SVG 1.1//EN" "http://www.w3.org/Graphics/SVG/1.1/DTD/svg11.dtd"><svg width="100%" height="100%" viewBox="0 0 448 480" version="1.1" xmlns="http://www.w3.org/2000/svg" xmlns:xlink="http://www.w3.org/1999/xlink" xml:space="preserve" xmlns:serif="http://www.serif.com/" style="fill-rule:evenodd;clip-rule:evenodd;stroke-linejoin:round;stroke-miterlimit:2;"><path d="M432,176l-416,0c-8.8,0 -16,7.2 -16,16l0,240c0,26.4 21.6,48 48,48l352,0c26.4,0 48,-21.6 48,-48l0,-240c0,-8.8 -7.2,-16 -16,-16Zm-288,224c0,8.8 -7.2,16 -16,16l-32,0c-8.8,0 -16,-7.2 -16,-16l0,-32c0,-8.8 7.2,-16 16,-16l32,0c8.8,0 16,7.2 16,16l0,32Zm112,0c0,8.8 -7.2,16 -16,16l-32,0c-8.8,0 -16,-7.2 -16,-16l0,-32c0,-8.8 7.2,-16 16,-16l32,0c8.8,0 16,7.2 16,16l0,32Zm0,-112c0,8.8 -7.2,16 -16,16l-32,0c-8.8,0 -16,-7.2 -16,-16l0,-32c0,-8.8 7.2,-16 16,-16l32,0c8.8,0 16,7.2 16,16l0,32Zm112,0c0,8.8 -7.2,16 -16,16l-32,0c-8.8,0 -16,-7.2 -16,-16l0,-32c0,-8.8 7.2,-16 16,-16l32,0c8.8,0 16,7.2 16,16l0,32Zm32,-240l-40,0l0,-16c0,-17.6 -14.4,-32 -32,-32c-17.6,0 -32,14.4 -32,32l0,16l-144,0l0,-16c0,-17.6 -14.4,-32 -32,-32c-17.6,0 -32,14.4 -32,32l0,16l-40,0c-26.4,0 -48,21.6 -48,48l0,16c0,8.8 7.2,16 16,16l416,0c8.8,0 16,-7.2 16,-16l0,-16c0,-26.4 -21.6,-48 -48,-48Z" style="fill:#fff;fill-rule:nonzero;"/></svg>