<?xml version="1.0" encoding="UTF-8" standalone="no"?><!DOCTYPE svg PUBLIC "-//W3C//DTD SVG 1.1//EN" "http://www.w3.org/Graphics/SVG/1.1/DTD/svg11.dtd"><svg width="100%" height="100%" viewBox="0 0 3690 939" version="1.1" xmlns="http://www.w3.org/2000/svg" xmlns:xlink="http://www.w3.org/1999/xlink" xml:space="preserve" xmlns:serif="http://www.serif.com/" style="fill-rule:evenodd;clip-rule:evenodd;stroke-linejoin:round;stroke-miterlimit:2;"><path d="M0.658,938.218c-0.36,-0.38 -0.658,-1.323 -0.658,-2.096c0,-1.574 4.398,-13.487 6.96,-18.86c1.399,-2.929 4.672,-10.362 12.713,-28.868c0.628,-1.445 2.311,-5.184 3.743,-8.312c2.82,-6.173 11.784,-27.155 14.009,-32.806c0.757,-1.924 4.014,-9.403 7.238,-16.621c3.22,-7.218 7.723,-17.451 10.001,-22.745c2.282,-5.293 4.841,-11.198 5.691,-13.123c0.846,-1.924 2.44,-5.663 3.541,-8.308c1.101,-2.649 2.331,-5.188 2.734,-5.644c0.404,-0.457 0.731,-1.485 0.731,-2.285c-0,-0.797 0.899,-2.784 1.997,-4.417c1.098,-1.63 2.516,-4.735 3.151,-6.901c0.635,-2.165 1.954,-5.71 2.933,-7.872c0.975,-2.166 2.939,-6.497 4.361,-9.625c6.441,-14.168 9.142,-20.4 9.853,-22.745c0.367,-1.203 2.03,-5.138 3.696,-8.748c1.67,-3.608 3.627,-7.939 4.355,-9.622c0.727,-1.686 2.235,-5.032 3.349,-7.436c1.118,-2.407 2.305,-5.359 2.639,-6.563c0.333,-1.2 1.319,-3.564 2.188,-5.247c2.421,-4.692 5.677,-11.963 8.815,-19.683c1.564,-3.849 3.756,-8.732 4.874,-10.848c1.114,-2.116 2.027,-4.206 2.027,-4.646c-0,-0.439 0.929,-2.84 2.059,-5.336c1.131,-2.496 3.343,-7.691 4.91,-11.539c1.571,-3.849 3.647,-8.769 4.616,-10.935c0.972,-2.165 2.457,-5.511 3.3,-7.436c2.394,-5.455 7.995,-17.467 8.286,-17.768c0.502,-0.519 15.943,10.362 21.008,14.809c2.718,2.387 10.835,8.759 16.621,13.054c2.887,2.139 5.446,4.113 5.687,4.384c0.238,0.271 4.176,3.273 8.749,6.672c4.569,3.399 9.119,6.964 10.111,7.922c0.992,0.959 4.143,3.472 7.003,5.582c12.243,9.036 13.228,10.352 10.921,14.564c-0.457,0.837 -1.482,3.095 -2.275,5.019c-3.24,7.853 -7.185,16.882 -12.422,28.432c-0.982,2.165 -3.029,7.085 -4.546,10.934c-1.518,3.852 -3.191,7.985 -3.713,9.185c-0.523,1.203 -1.459,3.369 -2.08,4.814c-0.618,1.442 -1.888,4.394 -2.824,6.56c-0.936,2.165 -5.138,12.204 -9.344,22.308c-4.202,10.104 -8.338,19.749 -9.188,21.432c-3.201,6.341 -6.14,13.047 -6.14,14.015c-0,0.939 -2.523,7.169 -7.436,18.354c-1.161,2.645 -3.353,7.763 -4.867,11.371c-1.518,3.61 -3.865,8.924 -5.221,11.81c-1.355,2.886 -3.326,7.611 -4.374,10.498c-1.051,2.886 -2.804,7.218 -3.898,9.625c-3.267,7.188 -3.389,8.077 -1.27,9.211c2.358,1.263 38.784,0.437 61.184,-1.385c8.422,-0.688 19.389,-1.452 24.372,-1.703c4.986,-0.251 9.34,-0.625 9.674,-0.833c0.337,-0.205 6.295,-0.585 13.245,-0.837c6.947,-0.254 15.388,-0.863 18.758,-1.352c3.369,-0.493 12.815,-1.501 20.995,-2.242c8.18,-0.744 18.218,-1.726 22.308,-2.182c4.09,-0.456 15.309,-1.438 24.93,-2.182c9.625,-0.744 19.177,-1.736 21.227,-2.206c2.053,-0.469 5.006,-0.859 6.563,-0.869c1.557,-0.01 5.978,-0.585 9.83,-1.283c3.849,-0.694 8.894,-1.276 11.215,-1.293c2.318,-0.016 7.436,-0.601 11.371,-1.302c3.938,-0.698 10.699,-1.703 15.03,-2.232c4.329,-0.526 10.432,-1.515 13.56,-2.196c3.128,-0.677 8.636,-1.676 12.247,-2.218c3.607,-0.539 11.678,-1.925 17.933,-3.075c20.811,-3.826 32.31,-5.793 38.179,-6.527c3.194,-0.397 7.525,-1.177 9.622,-1.732c8.771,-2.318 11.169,-2.87 23.058,-5.294c1.925,-0.393 5.862,-1.303 8.749,-2.02c2.886,-0.721 8.792,-2.156 13.123,-3.194c4.328,-1.035 8.659,-2.219 9.621,-2.629c0.963,-0.41 4.9,-1.388 8.749,-2.175c3.849,-0.787 9.36,-2.222 12.247,-3.191c8.299,-2.781 20.675,-6.133 24.477,-6.629c1.914,-0.251 4.275,-0.959 5.247,-1.577c2.473,-1.574 19.901,-7.403 22.133,-7.403c1.012,0 4.116,-1.181 6.897,-2.626c2.784,-1.441 5.489,-2.622 6.011,-2.622c0.526,0 2.572,-0.783 4.55,-1.739c1.973,-0.952 5.432,-2.36 7.684,-3.124c2.251,-0.764 7.422,-2.936 11.492,-4.824c4.074,-1.891 8.091,-3.435 8.928,-3.435c0.836,0 1.898,-0.367 2.354,-0.817c0.456,-0.447 4.963,-2.943 10.015,-5.548c5.052,-2.602 11.549,-6.12 14.435,-7.813c2.887,-1.696 7.159,-4.133 9.493,-5.419c2.338,-1.287 8.025,-5.178 12.644,-8.65c4.615,-3.471 9.059,-6.702 9.872,-7.185c1.759,-1.038 13.795,-11.721 15.157,-13.453c0.522,-0.661 3.058,-3.221 5.637,-5.687c9.843,-9.4 22.431,-30.574 24.623,-41.412c0.466,-2.302 1.236,-5.757 1.712,-7.681c1.31,-5.3 1.075,-18.665 -0.429,-24.53c-6.907,-26.904 -17.647,-44.735 -41.092,-68.22c-14.336,-14.36 -19.66,-19.233 -26.246,-24.028c-2.886,-2.103 -6.113,-4.734 -7.175,-5.852c-1.058,-1.118 -2.245,-2.03 -2.632,-2.03c-0.39,0 -1.689,-0.913 -2.886,-2.024c-1.2,-1.111 -4.424,-3.455 -7.162,-5.207c-2.741,-1.752 -7.859,-5.284 -11.37,-7.843c-3.515,-2.559 -7.866,-5.422 -9.671,-6.361c-1.806,-0.939 -3.28,-2.014 -3.28,-2.384c-0,-0.374 -0.42,-0.678 -0.933,-0.678c-0.512,0 -2.185,-0.932 -3.719,-2.076c-2.589,-1.931 -7.823,-5.026 -14.205,-8.395c-1.468,-0.777 -3.828,-2.229 -5.247,-3.227c-1.418,-1.002 -3.561,-2.116 -4.764,-2.48c-1.204,-0.364 -4.355,-1.918 -7,-3.452c-2.645,-1.534 -8.944,-4.867 -13.996,-7.4c-5.052,-2.536 -9.806,-5.167 -10.567,-5.849c-0.76,-0.681 -1.898,-1.239 -2.526,-1.239c-0.628,0 -9.089,-3.935 -18.797,-8.746c-9.707,-4.814 -18.066,-8.748 -18.578,-8.748c-0.509,0 -3.24,-1.019 -6.067,-2.262c-2.827,-1.243 -6.418,-2.82 -7.982,-3.501c-1.564,-0.678 -4.182,-1.829 -5.819,-2.55c-1.637,-0.72 -3.409,-1.312 -3.938,-1.312c-0.529,0 -0.959,-0.298 -0.959,-0.662c-0,-0.363 -1.673,-1.18 -3.72,-1.818c-2.043,-0.635 -4.9,-1.693 -6.341,-2.348c-1.445,-0.658 -4.986,-1.954 -7.873,-2.886c-2.886,-0.932 -7.022,-2.496 -9.185,-3.482c-2.165,-0.985 -5.511,-2.436 -7.436,-3.23c-6.381,-2.622 -7.856,-3.273 -10.197,-4.487c-1.276,-0.664 -3.151,-1.206 -4.166,-1.206c-1.015,0 -2.529,-0.338 -3.365,-0.748c-0.837,-0.41 -3.095,-1.438 -5.02,-2.284c-1.924,-0.844 -4.099,-1.835 -4.84,-2.202c-0.737,-0.367 -2.705,-0.959 -4.371,-1.316c-1.67,-0.358 -3.429,-0.936 -3.908,-1.28c-0.483,-0.347 -3.237,-1.316 -6.124,-2.156c-2.889,-0.836 -6.037,-1.838 -6.999,-2.225c-0.962,-0.387 -3.521,-1.389 -5.687,-2.225c-2.166,-0.837 -4.725,-1.838 -5.687,-2.229c-0.962,-0.39 -3.915,-1.345 -6.56,-2.129c-2.645,-0.78 -5.416,-1.742 -6.153,-2.139c-0.737,-0.394 -2.602,-0.992 -4.146,-1.333c-1.541,-0.337 -3.029,-0.978 -3.303,-1.421c-0.275,-0.447 -1.336,-0.807 -2.358,-0.807c-1.025,0 -6.414,-1.528 -11.979,-3.396c-5.564,-1.868 -12.478,-4.083 -15.364,-4.923c-2.887,-0.843 -5.625,-1.875 -6.081,-2.291c-0.456,-0.42 -1.838,-0.764 -3.075,-0.764c-1.233,0 -4.401,-0.813 -7.039,-1.805c-5.227,-1.964 -9.82,-3.426 -17.924,-5.707c-11.82,-3.33 -14.065,-4.024 -15.513,-4.798c-0.837,-0.446 -2.216,-0.81 -3.062,-0.806c-1.647,0.003 -9.284,-2.331 -11.81,-3.611c-0.837,-0.423 -2.269,-0.77 -3.181,-0.77c-1.554,0 -8.858,-1.984 -12.799,-3.479c-2.136,-0.81 -8.402,-2.493 -13.12,-3.524c-1.924,-0.42 -5.667,-1.415 -8.312,-2.212c-2.645,-0.797 -6.189,-1.779 -7.872,-2.182c-1.683,-0.404 -4.834,-1.161 -7,-1.683c-2.166,-0.519 -4.725,-1.283 -5.687,-1.69c-0.962,-0.41 -3.521,-1.213 -5.684,-1.792c-3.802,-1.012 -6.034,-1.524 -15.216,-3.505c-2.357,-0.506 -4.718,-1.269 -5.25,-1.696c-0.532,-0.426 -2.344,-0.998 -4.031,-1.269c-3.236,-0.526 -11.787,-2.589 -13.995,-3.38c-2.503,-0.896 -9.205,-2.588 -13.123,-3.316c-2.166,-0.4 -6.299,-1.382 -9.185,-2.175c-5.053,-1.396 -7.112,-1.882 -16.585,-3.922c-2.387,-0.512 -4.728,-1.322 -5.204,-1.798c-0.48,-0.477 -2.232,-0.867 -3.899,-0.867c-2.688,0 -6.629,-0.909 -15.49,-3.567c-1.478,-0.443 -3.766,-0.807 -5.088,-0.807c-1.32,0 -3.188,-0.423 -4.15,-0.939c-1.62,-0.866 -4.361,-1.488 -14.756,-3.359c-3.955,-0.711 -10.422,-2.226 -15.312,-3.581c-1.442,-0.404 -4.688,-0.995 -7.215,-1.319c-2.526,-0.324 -4.814,-0.946 -5.081,-1.382c-0.272,-0.437 -2.017,-0.794 -3.882,-0.794c-1.865,0 -4.467,-0.41 -5.786,-0.909c-1.316,-0.503 -4.196,-1.118 -6.398,-1.372c-2.202,-0.255 -4.378,-0.83 -4.837,-1.277c-0.457,-0.449 -2.632,-0.816 -4.834,-0.816c-2.202,0 -4.781,-0.539 -5.73,-1.197c-0.949,-0.658 -4.087,-1.422 -6.973,-1.696c-2.89,-0.271 -8.203,-1.125 -11.811,-1.892c-3.61,-0.77 -8.867,-1.742 -11.681,-2.159c-2.817,-0.416 -5.555,-1.19 -6.08,-1.719c-0.529,-0.529 -3.194,-0.959 -5.929,-0.959c-3.346,0 -5.32,-0.43 -6.054,-1.312c-0.949,-1.141 -0.397,-1.313 4.256,-1.313c2.936,0 7.019,0.374 9.072,0.83c4.246,0.942 14.826,2.506 23.852,3.524c16.694,1.882 22.566,2.702 23.486,3.287c0.555,0.35 3.762,0.929 7.131,1.286c3.37,0.357 9.47,1.28 13.56,2.047c4.09,0.767 10.19,1.716 13.559,2.109c3.369,0.394 7.697,1.144 9.625,1.67c1.924,0.522 4.781,0.962 6.352,0.972c1.57,0.013 3.541,0.374 4.374,0.803c0.836,0.43 4.473,1.267 8.081,1.862c3.61,0.592 8.53,1.432 10.934,1.868c2.407,0.436 6.877,1.164 9.935,1.617c3.062,0.453 6.802,1.203 8.313,1.67c1.511,0.462 6.685,1.497 11.496,2.301c4.811,0.8 9.433,1.808 10.266,2.238c0.837,0.433 2.682,0.784 4.1,0.784c1.419,0 3.687,0.423 5.036,0.936c1.352,0.512 4.824,1.266 7.713,1.669c2.89,0.407 7.615,1.372 10.501,2.149c2.887,0.777 7.218,1.776 9.625,2.219c9.86,1.812 14.085,2.751 15.745,3.505c0.962,0.439 3.326,0.982 5.251,1.21c4.5,0.532 12.346,2.556 13.195,3.405c0.361,0.361 2.262,0.668 4.226,0.685c1.967,0.016 4.556,0.595 5.76,1.283c1.203,0.687 3.448,1.263 4.989,1.279c1.541,0.017 3.706,0.38 4.811,0.804c1.107,0.423 5.161,1.445 9.01,2.268c3.848,0.823 9.949,2.275 13.559,3.227c3.607,0.952 8.332,2.073 10.498,2.486c6.374,1.224 12.928,3.009 13.632,3.713c0.36,0.361 1.637,0.655 2.84,0.655c1.2,0 4.381,0.628 7.069,1.395c2.688,0.767 6.266,1.71 7.952,2.097c1.683,0.39 4.834,1.163 6.996,1.719c2.166,0.555 5.317,1.349 7,1.759c5.779,1.405 19.686,5.171 24.493,6.629c2.649,0.804 6.19,1.66 7.876,1.908c1.683,0.248 3.495,0.797 4.031,1.223c0.532,0.423 2.694,1.141 4.81,1.591c6.897,1.464 11.682,2.694 13.467,3.458c0.962,0.413 5.29,1.809 9.622,3.101c13.222,3.948 16.548,4.983 18.37,5.727c0.962,0.39 4.113,1.405 7,2.252c2.886,0.849 5.839,1.818 6.559,2.159c2.649,1.243 7.506,2.813 10.062,3.247c1.445,0.248 3.018,0.747 3.498,1.111c0.483,0.367 2.242,0.955 3.908,1.315c1.67,0.358 3.637,0.959 4.374,1.34c0.738,0.38 3.703,1.345 6.59,2.142c2.886,0.8 6.037,1.756 6.999,2.129c0.963,0.371 5.096,1.74 9.186,3.036c4.089,1.299 8.814,2.903 10.497,3.564c3.568,1.405 13.765,4.959 18.81,6.556c1.924,0.609 4.679,1.614 6.124,2.236c1.441,0.621 4.592,1.798 6.996,2.615c5.558,1.891 7.109,2.48 11.185,4.242c1.819,0.79 3.912,1.435 4.646,1.435c0.737,0 3.379,0.939 5.875,2.083c2.496,1.147 5.327,2.298 6.289,2.556c2.526,0.681 11.8,4.047 14.872,5.396c4.417,1.941 6.755,2.87 13.123,5.22c3.366,1.244 7.238,2.847 8.6,3.565c1.362,0.714 3.207,1.299 4.103,1.299c0.896,0 1.842,0.351 2.106,0.78c0.265,0.427 1.501,1.032 2.748,1.346c2.136,0.536 6.94,2.629 19.183,8.362c2.887,1.352 7.413,3.432 10.062,4.622c18.112,8.157 54.188,26.124 60.797,30.283c2.407,1.511 5.459,3.224 6.781,3.803c1.323,0.578 2.407,1.319 2.407,1.643c-0,0.321 0.913,0.817 2.031,1.098c1.117,0.277 6.136,3.197 11.152,6.483c9.426,6.173 21.647,13.97 24.298,15.504c5.76,3.329 21.885,14.925 23.753,17.084c0.242,0.278 1.915,1.402 3.72,2.496c1.805,1.098 3.773,2.652 4.374,3.455c0.602,0.804 3.456,3.178 6.342,5.281c5.981,4.354 33.765,32.181 36.78,36.839c1.098,1.693 2.93,4.064 4.07,5.267c5.102,5.383 9.119,12.045 16.621,27.556c2.328,4.81 4.649,9.479 5.158,10.375c0.513,0.896 1.27,3.455 1.683,5.687c0.417,2.232 1.551,7.208 2.526,11.056c2.011,7.929 2.457,23.687 0.923,32.426c-3.125,17.768 -10.3,33.13 -25.552,54.701c-4.04,5.713 -20.232,22.099 -26.586,26.91c-2.953,2.235 -9.513,7.31 -14.578,11.281c-5.066,3.968 -9.443,7.218 -9.728,7.218c-0.416,0 -14.637,8.448 -20.625,12.25c-0.72,0.46 -6.034,3.194 -11.807,6.077c-5.776,2.884 -12.663,6.494 -15.311,8.025c-2.646,1.531 -6.749,3.534 -9.119,4.454c-2.371,0.919 -6.898,2.866 -10.062,4.331c-3.164,1.465 -6.93,3.158 -8.375,3.763c-1.445,0.608 -5.412,2.337 -8.818,3.845c-3.405,1.511 -7.026,2.744 -8.041,2.744c-1.015,0 -2.06,0.347 -2.321,0.771c-0.265,0.423 -1.369,0.982 -2.46,1.24c-1.088,0.257 -5.326,1.709 -9.416,3.223c-4.09,1.518 -8.223,2.959 -9.186,3.207c-0.962,0.248 -2.536,0.767 -3.498,1.151c-7.499,2.986 -19.421,7.072 -23.184,7.945c-1.683,0.39 -8.18,2.48 -14.432,4.646c-14.125,4.886 -40.659,12.577 -45.929,13.311c-2.166,0.298 -5.922,1.257 -8.345,2.126c-2.424,0.873 -6.362,1.852 -8.749,2.176c-2.387,0.327 -7.489,1.497 -11.338,2.599c-8.933,2.559 -13.582,3.696 -20.119,4.909c-2.886,0.539 -6.626,1.31 -8.312,1.713c-11.949,2.86 -35.054,7.674 -44.176,9.202c-12.922,2.169 -16.813,2.883 -20.225,3.723c-1.869,0.459 -6.349,1.309 -9.956,1.891c-3.61,0.582 -8.497,1.428 -10.861,1.878c-2.361,0.45 -8.022,1.204 -12.578,1.676c-4.553,0.473 -10.564,1.452 -13.357,2.173c-2.794,0.724 -9.338,1.686 -14.542,2.136c-5.204,0.453 -12.415,1.428 -16.023,2.169c-3.61,0.743 -10.497,1.573 -15.311,1.844c-4.811,0.275 -10.911,1.039 -13.56,1.703c-2.645,0.662 -9.337,1.644 -14.869,2.179c-5.534,0.539 -15.179,1.554 -21.435,2.258c-22.205,2.503 -36.905,3.932 -49.427,4.798c-6.976,0.486 -17.801,1.488 -24.057,2.232c-6.255,0.74 -19.441,1.716 -29.304,2.165c-9.863,0.45 -24.431,1.217 -32.369,1.703c-18.215,1.121 -63.096,2.52 -111.101,3.469c-20.45,0.403 -50.366,1.011 -66.485,1.355c-16.118,0.341 -29.601,0.311 -29.962,-0.069Zm163.808,-93.035c0,-1.025 0.367,-2.549 0.813,-3.386c0.45,-0.836 2.076,-4.668 3.614,-8.517c1.541,-3.848 3.686,-8.967 4.771,-11.374c1.084,-2.403 3.234,-7.327 4.774,-10.934c3.584,-8.378 4.983,-11.456 10.435,-22.969c2.454,-5.178 4.46,-9.744 4.46,-10.151c-0,-0.403 0.986,-2.589 2.189,-4.85c1.201,-2.262 2.186,-4.457 2.186,-4.88c-0,-0.781 2.536,-6.471 9.172,-20.573c2.036,-4.331 4.374,-9.449 5.191,-11.374c0.82,-1.924 2.056,-4.612 2.751,-5.974c0.691,-1.362 1.256,-3.042 1.256,-3.73c-0,-0.691 0.357,-1.937 0.79,-2.774c3.029,-5.819 12.588,-26.358 14.925,-32.075c1.561,-3.815 3.158,-7.555 3.545,-8.312c0.39,-0.754 1.689,-3.538 2.893,-6.183c6.414,-14.098 5.746,-13.123 8.953,-13.123c1.624,0 4.246,-0.542 5.826,-1.207c4.252,-1.785 8.531,-3.025 12.733,-3.686c2.057,-0.321 3.951,-0.926 4.209,-1.346c0.258,-0.417 1.455,-0.761 2.662,-0.761c1.206,0 2.949,-0.403 3.871,-0.899c0.926,-0.493 3.555,-1.299 5.849,-1.792c5.34,-1.144 9.212,-2.142 14.664,-3.782c10.657,-3.201 14.274,-4.157 18.374,-4.848c2.403,-0.406 6.536,-1.395 9.185,-2.195c2.645,-0.803 6.384,-1.775 8.309,-2.162c1.924,-0.384 6.255,-1.564 9.624,-2.622c12.396,-3.892 14.095,-4.328 18.946,-4.871l4.95,-0.552l-0.728,3.221c-0.397,1.772 -1.15,3.647 -1.666,4.166c-0.519,0.515 -0.946,1.689 -0.946,2.602c0,0.912 -1.574,4.93 -3.498,8.924c-1.924,3.994 -3.498,7.892 -3.498,8.662c0,0.771 -0.394,1.399 -0.876,1.399c-0.48,0 -0.873,0.539 -0.873,1.2c0,1.283 -2.946,8.412 -8.881,21.498c-0.969,2.139 -2.672,6.272 -3.783,9.185c-1.114,2.913 -3.766,9.037 -5.895,13.606c-2.129,4.573 -4.397,9.688 -5.042,11.374c-0.642,1.683 -2.037,5.029 -3.095,7.436c-1.061,2.404 -3.812,8.901 -6.113,14.432c-2.302,5.535 -4.523,10.435 -4.937,10.891c-0.41,0.46 -0.747,1.333 -0.747,1.945c0,0.615 -0.946,3.194 -2.1,5.729c-1.153,2.54 -3.329,7.767 -4.833,11.616c-1.505,3.852 -3.489,8.573 -4.408,10.497c-0.919,1.928 -3.905,9.014 -6.636,15.749c-2.731,6.735 -6.497,15.533 -8.365,19.547c-1.871,4.017 -3.402,7.697 -3.402,8.18c0,2.149 -7.39,15.725 -9.043,16.608c-1.733,0.926 -7.853,1.273 -59.63,3.359c-53.537,2.159 -52.925,2.159 -52.925,0.076Zm135.852,-7.75c-1.045,-0.701 0.086,-5.446 2.294,-9.631c0.44,-0.837 2.387,-5.456 4.328,-10.27c1.938,-4.811 5.512,-13.077 7.939,-18.37c2.427,-5.294 4.417,-10.095 4.421,-10.67c0.003,-0.575 1.362,-3.921 3.022,-7.436c1.656,-3.515 4.847,-10.914 7.085,-16.449c2.239,-5.532 4.794,-11.437 5.68,-13.123c2.774,-5.274 6.964,-14.945 6.964,-16.069c0,-0.592 0.327,-1.451 0.727,-1.908c0.397,-0.456 2.384,-5.019 4.414,-10.137c2.03,-5.118 5.641,-12.971 8.025,-17.454c2.38,-4.481 4.331,-8.584 4.331,-9.119c0,-1.217 3.29,-9.49 6.957,-17.484c1.544,-3.366 3.332,-7.304 3.974,-8.749c0.638,-1.442 2.377,-5.29 3.865,-8.55c1.485,-3.26 2.701,-6.18 2.701,-6.491c0,-0.539 4.649,-11.42 6.12,-14.326c0.384,-0.754 1.978,-4.494 3.541,-8.309c3.548,-8.653 4.133,-9.324 9.315,-10.719c2.314,-0.622 6.12,-1.7 8.461,-2.394c2.34,-0.695 5.2,-1.26 6.354,-1.26c1.154,0 2.784,-0.347 3.618,-0.774c1.428,-0.724 5.376,-1.855 12.455,-3.564c9.486,-2.291 18.462,-4.579 22.308,-5.69c5.657,-1.634 8.719,-2.272 13.559,-2.83c2.166,-0.248 4.345,-0.784 4.844,-1.187c0.893,-0.721 5.221,-1.941 12.267,-3.449c1.95,-0.42 4.509,-1.157 5.683,-1.637c2.645,-1.084 19.319,-5.058 23.836,-5.683c3.524,-0.49 5.154,1.008 3.452,3.174c-0.47,0.595 -1.121,2.208 -1.452,3.584c-0.327,1.375 -1.319,4.13 -2.199,6.123c-0.879,1.991 -2.301,5.588 -3.16,7.995c-0.857,2.407 -1.789,4.573 -2.074,4.811c-0.773,0.655 -3.58,6.153 -3.58,7.009c0,0.407 -1.181,3.294 -2.626,6.411c-1.441,3.122 -2.625,5.962 -2.625,6.312c0,0.354 -1.296,3.439 -2.883,6.858c-1.587,3.419 -3.326,7.396 -3.865,8.841c-0.539,1.442 -2.827,6.953 -5.082,12.247c-2.255,5.293 -4.626,11.04 -5.27,12.772c-0.645,1.733 -2.963,6.808 -5.158,11.278c-2.192,4.474 -3.984,8.633 -3.984,9.248c0,0.612 -0.559,2.229 -1.247,3.591c-0.684,1.362 -2.318,5.234 -3.634,8.6c-1.312,3.369 -3.346,8.289 -4.513,10.937c-2.771,6.289 -3.131,7.129 -6.371,14.872c-1.508,3.608 -3.502,8.23 -4.427,10.273c-0.926,2.044 -3.102,7.162 -4.834,11.374c-1.733,4.212 -3.849,9.036 -4.705,10.719c-0.857,1.683 -2.242,4.834 -3.079,7c-2.46,6.375 -5.951,14.512 -12.193,28.431c-1.082,2.404 -2.616,6.048 -3.413,8.091c-3.204,8.22 -4.42,10.828 -5.32,11.404c-0.515,0.33 -5.075,0.876 -10.127,1.21c-5.052,0.334 -12.138,1.035 -15.745,1.557c-14.67,2.129 -20.056,2.741 -27.78,3.154c-4.454,0.242 -9.106,0.82 -10.336,1.29c-1.233,0.466 -5.389,0.85 -9.238,0.85c-3.852,0 -7.684,0.367 -8.524,0.816c-1.309,0.701 -10.067,1.726 -27.667,3.234c-2.404,0.208 -4.851,0.056 -5.429,-0.334Zm154.364,-19.964c-1.494,-1.514 -0.046,-5.74 8.078,-23.554c1.537,-3.37 3.732,-8.607 4.883,-11.642c1.147,-3.032 2.622,-6.577 3.277,-7.873c1.474,-2.926 5.792,-12.25 6.768,-14.604c0.397,-0.962 1.865,-4.308 3.26,-7.436c1.395,-3.128 3.26,-7.654 4.143,-10.061c0.883,-2.404 1.921,-4.794 2.304,-5.307c0.665,-0.886 4.077,-8.672 13.884,-31.652c2.413,-5.654 4.758,-11.066 5.211,-12.028c0.453,-0.966 1.864,-4.312 3.141,-7.436c2.268,-5.575 4.933,-11.391 6.407,-13.999c1.634,-2.89 5.35,-11.47 5.35,-12.35c-0,-1.904 6.309,-14.158 8.329,-16.178c1.15,-1.15 3.105,-2.089 4.344,-2.089c1.24,0 4.702,-0.844 7.694,-1.872c2.993,-1.028 6.818,-2.189 8.501,-2.579c1.686,-0.39 5.227,-1.359 7.872,-2.149c2.649,-0.794 6.19,-1.779 7.876,-2.189c1.683,-0.41 5.228,-1.385 7.873,-2.169c2.645,-0.787 7.175,-2 10.061,-2.698c9.076,-2.199 11.232,-2.757 16.621,-4.298c2.887,-0.827 6.233,-1.69 7.436,-1.914c1.2,-0.229 3.426,-0.969 4.943,-1.647c1.514,-0.678 3.455,-1.23 4.312,-1.23c1.765,0 6.434,-1.385 10.676,-3.167c1.58,-0.665 3.825,-1.207 4.989,-1.207c1.164,0 3.019,-0.367 4.127,-0.817c1.104,-0.45 4.291,-1.491 7.079,-2.321c6.668,-1.977 7.356,-1.247 5.088,5.419c-2.222,6.53 -15.55,37.756 -17.22,40.334c-0.687,1.065 -1.249,2.652 -1.249,3.522c-0,0.873 -0.526,2.364 -1.164,3.313c-0.642,0.949 -1.812,3.382 -2.602,5.406c-0.794,2.023 -2.219,5.369 -3.171,7.436c-0.952,2.066 -2.569,5.921 -3.594,8.566c-1.025,2.646 -3.151,7.569 -4.728,10.935c-1.574,3.369 -3.753,8.289 -4.837,10.937c-1.763,4.298 -3.284,7.876 -6.319,14.869c-0.522,1.203 -1.455,3.369 -2.07,4.814c-0.615,1.442 -2.337,5.313 -3.828,8.596c-1.488,3.287 -6.269,14.469 -10.621,24.851c-4.351,10.382 -8.675,20.374 -9.608,22.206c-0.932,1.828 -1.709,4.03 -1.726,4.893c-0.066,3.551 -3.263,5.644 -11.999,7.849c-4.691,1.187 -10.497,2.487 -12.904,2.894c-2.407,0.403 -7.129,1.382 -10.498,2.172c-3.369,0.793 -8.091,1.792 -10.498,2.222c-9.906,1.769 -13.741,2.556 -16.423,3.369c-8.047,2.44 -12.802,3.617 -14.607,3.617c-1.104,0 -3.432,0.364 -5.171,0.807c-5.4,1.382 -12.597,2.896 -17.164,3.614c-2.403,0.38 -6.93,1.322 -10.058,2.096c-8.027,1.987 -11.707,2.496 -12.468,1.729Zm83.655,-196.742c-0.787,-2.047 0.968,-7.076 6.725,-19.273c5.429,-11.506 7.389,-15.88 8.094,-18.039c0.476,-1.475 6.421,-4.623 10.223,-5.416c1.204,-0.252 4.351,-1.111 7,-1.911c2.645,-0.8 6.189,-1.796 7.872,-2.216c1.683,-0.416 5.227,-1.408 7.873,-2.198c2.645,-0.794 6.189,-1.73 7.872,-2.08c1.686,-0.35 3.921,-1.101 4.973,-1.666c1.051,-0.566 3.237,-1.029 4.857,-1.029c1.62,0 3.316,-0.327 3.776,-0.727c0.985,-0.863 7.3,-2.781 12.203,-3.707c1.925,-0.363 5.664,-1.312 8.309,-2.109c8.931,-2.691 10.921,-3.224 15.897,-4.245c2.728,-0.562 5.254,-1.316 5.611,-1.677c0.361,-0.36 1.868,-0.668 3.353,-0.684c1.481,-0.017 3.462,-0.605 4.394,-1.313c0.936,-0.704 3.131,-1.283 4.884,-1.283c1.752,0 3.468,-0.281 3.812,-0.625c1.332,-1.332 8.335,-2.605 9.258,-1.682c1.428,1.431 1.445,1.372 -2.999,11.492c-0.635,1.442 -1.815,4.2 -2.619,6.124c-0.807,1.924 -1.802,4.285 -2.208,5.247c-0.41,0.966 -2.226,5.429 -4.038,9.926c-3.56,8.834 -3.663,8.927 -12.16,11.116c-2.407,0.621 -6.739,1.789 -9.625,2.599c-5.234,1.464 -19.121,5.105 -24.93,6.53c-4.16,1.021 -16.859,4.288 -22.748,5.852c-2.645,0.701 -5.713,1.643 -6.821,2.093c-1.104,0.446 -3.019,0.813 -4.255,0.813c-1.237,0 -4.07,0.572 -6.302,1.27c-2.229,0.698 -5.826,1.729 -7.992,2.291c-2.162,0.559 -5.677,1.564 -7.809,2.229c-2.13,0.664 -4.907,1.21 -6.167,1.21c-1.263,0 -2.681,0.387 -3.154,0.863c-0.476,0.473 -2.817,1.233 -5.208,1.689c-2.387,0.453 -5.029,1.091 -5.865,1.415c-1.005,0.387 -1.716,0.09 -2.086,-0.879Zm-505.095,-308.395c0,-0.483 0.986,-0.876 2.189,-0.876c1.204,0 2.186,0.393 2.186,0.876c0,0.479 -0.982,0.873 -2.186,0.873c-1.203,0 -2.189,-0.394 -2.189,-0.873Z" style="fill:#fff;fill-rule:nonzero;"/><path d="M1701.22,934.608c-62.255,-12.77 -105.356,-52.036 -130.282,-118.656c-18.522,-49.466 -19.542,-117.065 -2.571,-169.916c34.922,-108.784 167.428,-159.84 267.399,-103.052c17.114,9.71 32.29,17.665 33.759,17.665c1.448,0 3.549,-39.287 4.651,-87.324l2.019,-87.325l125.938,-54.524l-0,596.176l-115.147,0l-0,-53.076l-19.786,18.97c-37.859,36.248 -106.601,53.26 -165.98,41.062Zm129.039,-119.044c52.749,-26.946 55.85,-136.708 4.793,-170.161c-68.027,-44.57 -149.538,0.225 -149.538,82.184c-0,86.039 67.824,127.264 144.745,87.977Zm863.737,118.819c-99.95,-19.908 -158.35,-106.886 -150.64,-224.44c6.895,-105.173 67.029,-174.282 164.144,-188.683c43.57,-6.446 97.87,6.691 134.138,32.474c16.482,11.729 31.862,21.316 34.187,21.316c2.326,0 4.223,-10.831 4.223,-24.049c0,-23.438 1.019,-24.254 41.367,-32.882c22.764,-4.875 47.058,-10.464 53.973,-12.422c11.79,-3.346 12.586,9.995 12.586,209.182l-0,212.773l-107.926,0l0,-44.162l-21.174,15.074c-46.813,33.351 -109.211,46.895 -164.878,35.819Zm122.104,-118.962c52.749,-26.538 55.87,-136.565 4.813,-170.018c-68.027,-44.57 -149.558,0.225 -149.558,82.184c-0,85.774 67.456,126.713 144.745,87.834Zm-1727.86,94.138c-21.765,-10.301 -51.669,-30.475 -66.437,-44.835c-39.124,-38.022 -40.327,-24.478 -1.632,18.542l33.045,36.777l-23.437,-8.179c-35.085,-12.219 -83.102,-63.908 -92.791,-99.849c-19.358,-71.863 28.17,-185.419 112.251,-268.256c77.574,-76.431 136.483,-82.041 217.178,-20.704c33.168,25.212 86.57,97.993 110.905,151.15c39.919,87.202 34.044,149.253 -18.971,200.228c-16.91,16.257 -40.612,33.004 -52.708,37.227l-21.989,7.649l28.149,-29.006c32.923,-33.922 30.618,-52.811 -2.489,-20.459c-57.747,56.482 -150.476,73.127 -221.074,39.715Zm993.041,18.093l-0,-616.778l59.379,-25.049l59.358,-25.049l3.876,306.298l37.002,-22.988c32.556,-20.235 43.163,-23.009 88.018,-23.009c67.926,0 107.355,21.989 137.728,76.819l21.214,38.308l2.346,145.724l2.325,145.724l-123.388,0l-0.041,-109.742c-0.02,-60.358 -3.386,-121.736 -7.445,-136.402c-13.789,-49.608 -66.11,-70.496 -114.25,-45.61c-36.818,19.031 -43.774,47.038 -43.774,175.913l-0,115.841l-122.348,0Zm985.861,0l-0,-430.747l41.388,-8.302c22.744,-4.569 48.649,-10.016 57.563,-12.076c15.625,-3.651 16.176,-2.019 16.176,47.65l-0,51.424l15.38,-14.299c29.985,-27.946 65.274,-39.899 117.758,-39.879c56.32,0.021 80.879,9.955 117.555,47.467c36.737,37.573 44.345,76.513 44.345,226.949l-0,131.813l-122.327,0l-0.163,-106.152c-0.102,-58.359 -3.162,-119.084 -6.813,-134.913c-12.382,-53.586 -64.56,-76.636 -114.74,-50.689c-36.818,19.031 -43.774,47.038 -43.774,175.913l-0,115.841l-122.348,0Zm482.13,-230.274c-0,-126.652 0.999,-230.275 2.223,-230.275c1.224,0 28.741,-9.668 61.174,-21.52l58.93,-21.499l-0,503.568l-122.327,0l-0,-230.274Zm-2459.4,-224.869c4.344,-13.83 49.567,-34.167 75.962,-34.167c38.389,-0.02 91.608,27.476 78.512,40.572c-2.019,1.999 -20.153,-2.203 -40.306,-9.363c-34.963,-12.422 -38.247,-12.443 -71.781,-0.53c-41.918,14.87 -46.08,15.217 -42.387,3.488Zm-33.861,-77.921c-18.195,-24.723 -30.536,-47.222 -27.415,-49.996c3.121,-2.774 16.318,-8.608 29.353,-12.953c21.723,-7.261 24.314,-6.486 31.617,9.588c10.403,22.825 21.805,15.726 12.789,-7.976c-10.219,-26.864 -9.301,-28.884 19.399,-42.489c28.292,-13.443 81.959,-11.587 110.741,3.814c12.933,6.935 14.503,12.484 10.77,38.145c-4.344,29.964 -4.324,29.985 6.691,10.647c10.036,-17.624 13.034,-18.725 32.617,-11.892c11.871,4.141 23.111,9.995 24.987,13.035c3.937,6.364 -32.984,64.192 -51.852,81.205c-11.198,10.097 -17.195,10.341 -49.261,1.978c-34.697,-9.016 -73.576,-6.527 -105.173,6.732c-9.281,3.896 -20.01,-5.549 -45.263,-39.838Zm2524.27,-6.344c-25.335,-10.79 -39.348,-38.654 -36.839,-73.229c6.364,-87.895 145.826,-80.063 145.826,8.18c-0,21.316 -4.793,33.575 -18.521,47.303c-20.378,20.378 -64.152,28.965 -90.466,17.746Zm-2060.27,-79.573c-76.208,-7.914 -179.3,-25.599 -226.685,-38.879c-47.915,-13.422 -28.353,-13.544 46.773,-0.285c33.657,5.936 125.938,12.667 205.103,14.952c166.653,4.814 250.591,-4.712 358.293,-40.674c80.042,-26.722 216.689,-92.669 300.138,-144.827l61.153,-38.226l-26.986,-6.772c-14.83,-3.713 -26.987,-8.669 -26.987,-11.015c-0,-4.957 114.903,-46.691 117.493,-42.673c0.938,1.489 -0,30.21 -2.101,63.867c-3.712,59.195 -4.202,60.541 -14.707,41.612l-10.872,-19.542l-46.691,32.78c-98.034,68.803 -297.425,152.517 -424.73,178.3c-68.17,13.81 -228.887,19.725 -309.194,11.382Zm-282.004,-55.156c5.201,-2.081 11.402,-1.836 13.789,0.55c2.407,2.407 -1.856,4.1 -9.445,3.794c-8.363,-0.346 -10.076,-2.06 -4.344,-4.344Z" style="fill:#fff;fill-rule:nonzero;"/></svg>